<svg viewBox="0 0 82 83" fill="none" xmlns="http://www.w3.org/2000/svg">
  <path d="M70.2957 0.277344H11.1707C5.07181 0.277344 0.127686 5.22139 0.127686 11.3202C0.127686 17.419 5.07181 22.363 11.1707 22.363H70.2957C76.3946 22.363 81.3387 17.419 81.3387 11.3202C81.3387 5.22139 76.3946 0.277344 70.2957 0.277344Z"
  fill="#000"/>
  <path d="M44.52 30.293H11.1707C5.07181 30.293 0.127686 35.237 0.127686 41.3358C0.127686 47.4346 5.07181 52.3786 11.1707 52.3786H44.52C50.6189 52.3786 55.563 47.4346 55.563 41.3358C55.563 35.237 50.6189 30.293 44.52 30.293Z"
  fill="#000"/>
  <path d="M16.8404 60.3066H11.2564C5.1575 60.3066 0.213379 65.2507 0.213379 71.3495C0.213379 77.4483 5.1575 82.3923 11.2564 82.3923H16.8404C22.9393 82.3923 27.8834 77.4483 27.8834 71.3495C27.8834 65.2507 22.9393 60.3066 16.8404 60.3066Z"
  fill="#000"/>
</svg>